<svg width="22" height="27" fill="none" xmlns="http://www.w3.org/2000/svg"><path d="M19.25 10.8H6.875V6.75c0-2.233 1.85-4.05 4.125-4.05 2.274 0 4.125 1.817 4.125 4.05h2.75C17.875 3.028 14.791 0 11 0 7.21 0 4.125 3.028 4.125 6.75v4.05H2.75c-.73 0-1.429.284-1.945.79A2.675 2.675 0 0 0 0 13.5v10.8c0 .716.29 1.403.805 1.91.516.505 1.216.79 1.945.79h16.5c.73 0 1.429-.285 1.945-.79A2.675 2.675 0 0 0 22 24.3V13.5c0-.716-.29-1.403-.805-1.91a2.776 2.776 0 0 0-1.945-.79ZM8.334 18.224a2.704 2.704 0 0 1 1.122-1.556 2.793 2.793 0 0 1 3.605.45 2.635 2.635 0 0 1 .319 3.126 2.711 2.711 0 0 1-1.005.982V24.3h-2.75v-3.074a2.706 2.706 0 0 1-1.162-1.287 2.644 2.644 0 0 1-.13-1.715Z" fill="#EE723D"/></svg>