<svg width="27" height="29" fill="none" xmlns="http://www.w3.org/2000/svg"><path d="m14.816 10.423-3.604-3.697A1.4 1.4 0 0 0 10.21 6.3a1.4 1.4 0 0 0-1.001.426l-7.895 8.1-.001.001a1.47 1.47 0 0 0 .017 2.031 1.4 1.4 0 0 0 .99.425c.372.004.73-.143.996-.408h.002l6.893-7.073 3.603 3.697a1.4 1.4 0 0 0 1.002.426 1.4 1.4 0 0 0 1.002-.426l7.45-7.644V7.75c0 .384.149.752.414 1.024a1.4 1.4 0 0 0 1.002.426 1.4 1.4 0 0 0 1.002-.426c.265-.272.414-.64.414-1.024v-5.4c0-.384-.149-.752-.414-1.024A1.4 1.4 0 0 0 24.684.9h-5.263a1.4 1.4 0 0 0-1.002.426c-.265.272-.414.64-.414 1.024s.149.752.414 1.024a1.4 1.4 0 0 0 1.002.426h1.85l-6.455 6.623ZM3.732 26.65V22.6c0-.384-.149-.752-.414-1.024a1.4 1.4 0 0 0-1.002-.426 1.4 1.4 0 0 0-1.002.426c-.265.272-.414.64-.414 1.024v4.05c0 .384.149.752.414 1.024a1.4 1.4 0 0 0 1.002.426 1.4 1.4 0 0 0 1.002-.426c.265-.272.414-.64.414-1.024Zm6.578-9.45c0-.384-.148-.752-.413-1.024a1.4 1.4 0 0 0-1.002-.426 1.4 1.4 0 0 0-1.002.426c-.265.272-.414.64-.414 1.024v9.45c0 .384.149.752.414 1.024a1.4 1.4 0 0 0 1.002.426 1.4 1.4 0 0 0 1.002-.426c.265-.272.413-.64.413-1.024V17.2Zm6.166 1.676a1.4 1.4 0 0 0-1.002-.426 1.4 1.4 0 0 0-1.002.426c-.265.272-.414.64-.414 1.024v6.75c0 .384.149.752.414 1.024a1.4 1.4 0 0 0 1.002.426 1.4 1.4 0 0 0 1.002-.426c.265-.272.414-.64.414-1.024V19.9c0-.384-.15-.752-.414-1.024Zm6.992-5.726c0-.384-.148-.752-.413-1.024a1.399 1.399 0 0 0-1.002-.426 1.4 1.4 0 0 0-1.002.426c-.266.272-.414.64-.414 1.024v13.5c0 .384.148.752.414 1.024a1.4 1.4 0 0 0 1.002.426c.376 0 .736-.153 1.002-.426.265-.272.413-.64.413-1.024v-13.5Z" fill="#EE723D" stroke="#EE723D" stroke-width=".2"/></svg>