<svg width="29" height="29" fill="none" xmlns="http://www.w3.org/2000/svg"><path d="M20.136 19.314a1 1 0 0 0 .495.863l2.549 1.491a.966.966 0 1 1-.98 1.666l-3.62-2.144a1 1 0 0 1-.49-.86v-5.18a1 1 0 0 1 1-1h.045a1 1 0 0 1 1 1v4.164ZM29 19.55c0 5.224-4.268 9.45-9.546 9.45a9.562 9.562 0 0 1-7.517-3.636 1.063 1.063 0 0 0-.827-.414H4.09a1 1 0 0 1-1-1v-8.8a1 1 0 0 0-1-1h-.738c-.882 0-1.332-1.059-.72-1.694L11.895.77a1 1 0 0 1 1.46.02l8.638 9.495c.124.136.282.234.456.29C26.252 11.819 29 15.369 29 19.55Zm-2.727 0c0-3.726-3.055-6.75-6.819-6.75-3.763 0-6.818 3.024-6.818 6.75s3.055 6.75 6.819 6.75c3.763 0 6.818-3.024 6.818-6.75Z" fill="#EE723D"/></svg>