<svg width="40" height="40" fill="none" xmlns="http://www.w3.org/2000/svg"><circle cx="20" cy="20" r="20" fill="#EE723D"/><path d="M28 20a8.002 8.002 0 0 0-8-8v1.6a6.403 6.403 0 0 1 6.4 6.4H28Zm-16-1.6v-4a.8.8 0 0 1 .8-.8h4a.8.8 0 0 1 .8.8v3.2a.8.8 0 0 1-.8.8h-1.6a6.4 6.4 0 0 0 6.4 6.4v-1.6a.8.8 0 0 1 .8-.8h3.2a.8.8 0 0 1 .8.8v4a.8.8 0 0 1-.8.8h-4a9.6 9.6 0 0 1-9.6-9.6Z" fill="#fff"/><path d="M24.434 18.163A4.79 4.79 0 0 1 24.8 20h-1.44A3.358 3.358 0 0 0 20 16.64V15.2a4.8 4.8 0 0 1 4.434 2.963Z" fill="#fff"/></svg>