<svg width="17" height="18" fill="none" xmlns="http://www.w3.org/2000/svg"><path fill-rule="evenodd" clip-rule="evenodd" d="M1.997 1.955A6.788 6.788 0 0 0 .524 4.156 6.85 6.85 0 0 0 .506 9.37a6.789 6.789 0 0 0 1.459 2.212 6.702 6.702 0 0 0 2.186 1.475 6.642 6.642 0 0 0 5.155-.018 6.706 6.706 0 0 0 2.177-1.49 6.824 6.824 0 0 0 1.933-4.787 6.823 6.823 0 0 0-1.965-4.774A6.67 6.67 0 0 0 6.731 0a6.67 6.67 0 0 0-4.734 1.955Zm8.623 8.721a5.486 5.486 0 0 1-1.78 1.232 5.433 5.433 0 0 1-4.232.025 5.485 5.485 0 0 1-1.796-1.21 5.556 5.556 0 0 1-1.195-1.816 5.605 5.605 0 0 1 .025-4.279A5.553 5.553 0 0 1 2.86 2.827 5.457 5.457 0 0 1 6.74 1.2c1.457 0 2.852.585 3.882 1.626a5.582 5.582 0 0 1 1.607 3.925c0 1.472-.58 2.883-1.608 3.924Z" fill="#EE723D"/><path d="M10.312 12.98a1.24 1.24 0 0 1 .015-1.729 1.213 1.213 0 0 1 1.71-.015l4.62 4.674a1.241 1.241 0 0 1-.014 1.729 1.213 1.213 0 0 1-1.71.015l-4.621-4.675v.001ZM4.466 7.483a.606.606 0 0 1-.43-.18.62.62 0 0 1 0-.873.606.606 0 0 1 .43-.18h4.879c.162 0 .317.065.431.18a.62.62 0 0 1 0 .872.606.606 0 0 1-.431.181H4.466Z" fill="#EE723D"/><path d="M6.296 4.4a.62.62 0 0 1 .178-.437.606.606 0 0 1 .863 0 .62.62 0 0 1 .178.437v4.933a.62.62 0 0 1-.178.436.606.606 0 0 1-.863 0 .62.62 0 0 1-.178-.436V4.4Z" fill="#EE723D"/></svg>