<svg width="16" height="16" fill="none" xmlns="http://www.w3.org/2000/svg"><path d="M7.32 3.516c0 .077-.012.155-.012.236 0 .379.058.755.174 1.116-.056.168-.14.326-.25.465a2.94 2.94 0 0 0-.294-.02 1.36 1.36 0 0 0 .386-.943A1.52 1.52 0 0 0 5.8 2.896 1.69 1.69 0 0 0 4.118 4.6c0 .157.023.314.066.465a3.482 3.482 0 0 0-.302-.37V4.6a1.94 1.94 0 0 1 .558-1.37c.36-.364.849-.57 1.36-.575a1.782 1.782 0 0 1 1.52.86ZM5.06 1.012v.245a3.52 3.52 0 0 1 .74-.08c.74-.005 1.46.248 2.034.717.042-.069.084-.136.13-.2A3.415 3.415 0 0 0 5.8.938c-.248 0-.497.025-.74.074ZM7.2.547a2.413 2.413 0 0 1-.122-.29 4.456 4.456 0 0 0-.54-.121 7.747 7.747 0 0 0-.76.18H5.8a4.17 4.17 0 0 1 1.4.231Zm-2.244 1.4c-.027.096-.059.19-.096.282a2.74 2.74 0 0 1 .94-.161 2.38 2.38 0 0 1 1.66.632c.026-.084.056-.166.088-.249A2.629 2.629 0 0 0 5.8 1.828c-.284 0-.567.04-.84.122l-.004-.002Zm-.26 4.146.092-.08a1.91 1.91 0 0 1-.18-.18c.032.087.062.166.088.26Zm.274-1.512a.865.865 0 0 1 .83-.898.698.698 0 0 1 .72.687.48.48 0 0 1-.454.497.273.273 0 0 1-.284-.2.238.238 0 0 1 .102-.268l-.126-.2a.475.475 0 0 0-.2.543c.067.226.28.377.516.368a.716.716 0 0 0 .694-.738.94.94 0 0 0-.968-.928A1.097 1.097 0 0 0 4.722 4.58a1.281 1.281 0 0 0 .584 1.096 3.85 3.85 0 0 1 .278-.125 1.038 1.038 0 0 1-.614-.97Zm-1.886-.687c-.013.05-.024.1-.034.151.074.043.146.086.215.133a2.59 2.59 0 0 1 .093-.389c-.09.04-.18.074-.274.105Z" fill="#DF143F"/><path d="M14.614 9.38a2.276 2.276 0 0 1-.455 1.432c-.154.03-.305.07-.454.122a1.948 1.948 0 0 0 .668-1.554 2.242 2.242 0 0 0-.61-1.518 2.23 2.23 0 0 0-1.476-.696c.15-.05.299-.11.442-.179a2.484 2.484 0 0 1 1.885 2.393Zm.255-1.454a3.25 3.25 0 0 1-.024-.379v-.123a3.038 3.038 0 0 0-1.2-1.024c-.068.06-.14.117-.214.17a2.842 2.842 0 0 1 1.439 1.358v-.002Zm-2.736.93a.546.546 0 0 1 .567.524.4.4 0 0 1-.382.42.252.252 0 0 1-.217-.125.146.146 0 0 1 0-.143l-.2-.122a.38.38 0 0 0 0 .386.49.49 0 0 0 .425.243.626.626 0 0 0 .621-.66.788.788 0 0 0-.8-.763 1.012 1.012 0 0 0-1.021 1.022c0 .127.02.255.061.376.102.02.2.046.3.074a.911.911 0 0 1-.122-.45.774.774 0 0 1 .768-.782Zm1.506-3.108-.093-.108.093.105v.003ZM15.187 9a3.015 3.015 0 0 1-.294 1.758c.089 0 .175.004.259.012.192-.416.294-.868.3-1.326A3.31 3.31 0 0 1 15.187 9Zm-1.414.38a1.628 1.628 0 0 0-1.64-1.6 1.82 1.82 0 0 0-1.86 1.864c0 .105.01.21.028.316h.242a1.608 1.608 0 0 1-.032-.312 1.586 1.586 0 0 1 1.62-1.624 1.382 1.382 0 0 1 1.4 1.365 1.13 1.13 0 0 1-.638 1.077c-.134.063-.278.1-.426.108.088.062.174.127.256.2a1.356 1.356 0 0 0 1.05-1.394ZM11.12 7.367h-.088c-.132 0-.264 0-.4-.02-.228.15-.43.335-.6.548.022.113.038.227.048.34a2.353 2.353 0 0 1 1.04-.868Z" fill="#199DBF"/><path d="M8.647.028a6.5 6.5 0 0 1 .384.04.85.85 0 0 0 .484.15c.08.002.16-.004.24-.018.143.032.283.067.422.106a1.4 1.4 0 0 1-.662.156 1.075 1.075 0 0 1-.868-.434ZM9.515 1.2A2.049 2.049 0 0 0 11 .584a5.224 5.224 0 0 0-.246-.096c-.339.308-.78.476-1.238.472A1.556 1.556 0 0 1 8.042 0h-.255a1.804 1.804 0 0 0 1.728 1.2Zm0 .732a2.835 2.835 0 0 0 2.19-1.02L11.487.8a2.603 2.603 0 0 1-1.972.892A2.278 2.278 0 0 1 7.267.034L7.024.06a2.524 2.524 0 0 0 2.49 1.87v.002Z" fill="#EE723D"/><path d="M13.265 5.262c.045.072.093.142.143.2A3.025 3.025 0 0 1 11.03 6.54c-1.616 0-2.882-1.224-2.882-2.788a2.8 2.8 0 0 1 .774-1.888c.1.022.2.04.302.05a2.579 2.579 0 0 0-.836 1.838c0 1.428 1.16 2.548 2.642 2.548a2.773 2.773 0 0 0 2.234-1.038Zm-2.235 1.87a3.631 3.631 0 0 1-1.412-.282c.068.104.129.211.184.322a3.968 3.968 0 0 0 4.18-1.102c-.061-.052-.126-.104-.184-.16a3.731 3.731 0 0 1-2.768 1.222ZM8.308 1.648a1.423 1.423 0 0 1-.213-.12 3.49 3.49 0 0 0-.785 2.224 3.586 3.586 0 0 0 .414 1.68c.118.033.234.072.348.118a3.33 3.33 0 0 1-.522-1.8 3.26 3.26 0 0 1 .758-2.102Zm3.178-.5c-.07.07-.146.138-.224.2a2.183 2.183 0 0 1 1.558 1.217 3.48 3.48 0 0 1 .098-.329 2.424 2.424 0 0 0-1.434-1.088h.002Zm-.457 4.304a1.729 1.729 0 0 1-1.8-1.7 1.56 1.56 0 0 1 1.573-1.612 1.331 1.331 0 0 1 1.37 1.322 1.132 1.132 0 0 1-1.15 1.16.91.91 0 0 1-.946-.87.73.73 0 0 1 .726-.784.523.523 0 0 1 .548.496.333.333 0 0 1-.328.356.214.214 0 0 1-.17-.078.144.144 0 0 1-.032-.122l-.234-.054a.383.383 0 0 0 .08.324.452.452 0 0 0 .358.168.573.573 0 0 0 .576-.6.764.764 0 0 0-.799-.729.964.964 0 0 0-.964 1.024 1.155 1.155 0 0 0 1.187 1.11 1.364 1.364 0 0 0 1.388-1.4 1.572 1.572 0 0 0-1.61-1.562 1.802 1.802 0 0 0-1.8 1.852 1.97 1.97 0 0 0 2.033 1.94 2.197 2.197 0 0 0 1.909-1.068 3.32 3.32 0 0 1-.104-.318 1.968 1.968 0 0 1-1.81 1.145Z" fill="#169477"/><path d="M12.71 3.41c0-.55.13-1.095.375-1.588.066.055.13.11.2.166a3.355 3.355 0 0 0-.328 1.42 3.308 3.308 0 0 0 2.076 3.028c-.025.077-.05.153-.071.232a3.537 3.537 0 0 1-1.622-1.284 3.552 3.552 0 0 1-.63-1.974Zm2.553 2.514c.04-.072.084-.143.13-.212-.925-.4-1.6-1.302-1.6-2.3 0-.271.043-.541.127-.8-.06-.066-.125-.132-.187-.2-.12.32-.18.66-.18 1a2.806 2.806 0 0 0 1.71 2.512Zm.2-.8a8.025 8.025 0 0 0-.153-.371 1.658 1.658 0 0 1-.7-1.257 6.742 6.742 0 0 0-.229-.315c-.01.077-.015.155-.016.233a1.927 1.927 0 0 0 1.102 1.71h-.004Z" fill="#930F4B"/><path d="M14.845 7.55a3.214 3.214 0 0 1 .74-2.092c.03.088.058.174.084.264a3.075 3.075 0 0 0 .18 3.832c-.017.096-.038.19-.062.284a3.266 3.266 0 0 1-.942-2.288Zm1.126 1.122c.016-.2.026-.4.028-.6a2.145 2.145 0 0 1-.04-.894 9.5 9.5 0 0 0-.083-.6 2.487 2.487 0 0 0-.187.954 2.4 2.4 0 0 0 .282 1.14Z" fill="#DF143F"/><path d="M14.816 10.747c.227 0 .454.02.678.06-.028.076-.06.154-.09.228a3.236 3.236 0 0 0-2.116.338 8.83 8.83 0 0 0-.15-.2 3.474 3.474 0 0 1 1.678-.426Zm-1.2 1.168c.036.074.068.148.098.222.34-.192.72-.295 1.11-.302h.2c.042-.076.08-.152.12-.23a2.911 2.911 0 0 0-.322-.02c-.428.005-.848.12-1.22.332l.014-.002Zm.302 1.038a1.6 1.6 0 0 1 .54-.222c.066-.09.13-.18.2-.272a1.88 1.88 0 0 0-.774.236c.004.086.018.172.028.258h.006Z" fill="#169477"/><path d="M7.861 11.366c-.133.162-.25.337-.348.523a1.626 1.626 0 0 0-.16-.2c.048-.083.098-.164.152-.242.12-.02.24-.047.356-.082Zm4.4 1.888a1.72 1.72 0 0 0-1.77-1.703 1.97 1.97 0 0 0-1.34.589 1.98 1.98 0 0 0-.568 1.352c.001.157.02.314.058.467h.252a1.822 1.822 0 0 1-.062-.46 1.733 1.733 0 0 1 1.66-1.7 1.48 1.48 0 0 1 1.53 1.463 1.28 1.28 0 0 1-1.178 1.312c.09.062.174.129.256.2a1.507 1.507 0 0 0 1.162-1.522v.002Zm-1.77-2.504a2.711 2.711 0 0 0-2.6 1.832c.054.135.099.275.134.417a2.48 2.48 0 0 1 .872-1.447 2.472 2.472 0 0 1 1.594-.553 2.312 2.312 0 0 1 1.646.638c.444.422.703 1.002.72 1.615a2.144 2.144 0 0 1-.546 1.486c.185-.118.363-.243.537-.374.167-.347.253-.728.25-1.112a2.564 2.564 0 0 0-.788-1.791 2.552 2.552 0 0 0-1.819-.711Zm0 1.856a.668.668 0 0 1 .698.648.503.503 0 0 1-.482.546.278.278 0 0 1-.306-.278.19.19 0 0 1 .146-.186l-.05-.237a.425.425 0 0 0-.342.423.508.508 0 0 0 .55.515.747.747 0 0 0 .723-.784.905.905 0 0 0-.939-.887 1.096 1.096 0 0 0-1.088 1.123c0 .18.037.356.108.52.104.02.2.044.306.073a1.086 1.086 0 0 1-.174-.6.86.86 0 0 1 .85-.882v.006Zm0-2.659c-.274 0-.549.027-.818.083a2.855 2.855 0 0 1-.218.301 3.739 3.739 0 0 1 1.036-.143 3.174 3.174 0 0 1 3.2 3.066c0 .133-.008.267-.023.4.089-.09.176-.18.26-.272v-.126a3.419 3.419 0 0 0-3.437-3.309Z" fill="#DF143F"/><path d="M4.601 8.696a2.526 2.526 0 0 0 .74 1.8 3.325 3.325 0 0 0-.36-.044A2.77 2.77 0 0 1 4.366 8.8c.112-.18.205-.37.279-.568a2.56 2.56 0 0 0-.043.464ZM6.868 5.31a3.319 3.319 0 0 0-2.172.777c.023.08.043.162.063.245a3.01 3.01 0 0 1 2.11-.782 3 3 0 0 1 3 2.943c0 1.787-1.581 2.739-2.723 2.739-.084 0-.168 0-.25-.012.095.078.185.162.272.25 1.234-.013 2.934-1.046 2.934-2.977A3.252 3.252 0 0 0 6.868 5.31Zm2.4 3.183a2.406 2.406 0 0 0-.72-1.668 2.394 2.394 0 0 0-1.68-.685 2.451 2.451 0 0 0-2.022 1.012 3.35 3.35 0 0 1-.065.6A2.215 2.215 0 0 1 6.868 6.38a2.16 2.16 0 0 1 1.508.616c.404.395.638.932.652 1.497 0 1.313-.98 1.909-1.89 1.909a1.71 1.71 0 0 1-1.713-1.706A1.451 1.451 0 0 1 7.37 7.299a1.284 1.284 0 0 1 .819 1.194 1.067 1.067 0 0 1-1.052 1.073.854.854 0 0 1-.892-.87.638.638 0 0 1 .81-.642.453.453 0 0 1 .306.44.293.293 0 0 1-.22.306.2.2 0 0 1-.154-.055.122.122 0 0 1-.02-.103L6.73 8.6a.358.358 0 0 0 .072.3c.086.095.21.145.338.14a.526.526 0 0 0 .462-.546.695.695 0 0 0-.734-.694.882.882 0 0 0-.866.896 1.103 1.103 0 0 0 .703 1.03c.138.054.285.079.433.074A1.3 1.3 0 0 0 8.43 8.487a1.527 1.527 0 0 0-1.56-1.521A1.685 1.685 0 0 0 5.188 8.69a1.956 1.956 0 0 0 1.952 1.946 2.07 2.07 0 0 0 2.128-2.143Z" fill="#EE723D"/><path d="M4.83 1.186a3.034 3.034 0 0 0-.047-.51L5.011.58a2.864 2.864 0 0 1-.564 2.366 2.853 2.853 0 0 1-1.578 1.002 3.449 3.449 0 0 0-.426-.17 2.618 2.618 0 0 0 1.692-.834 2.63 2.63 0 0 0 .695-1.758Zm-1.47.3a11.33 11.33 0 0 0-.36.267.946.946 0 0 1-.443.382 8.4 8.4 0 0 0-.325.318 1.197 1.197 0 0 0 1.126-.968h.002Zm.87-.3c0-.08-.004-.158-.012-.237-.077.042-.155.089-.233.132v.104c0 1.2-.928 1.82-1.847 1.82a1.73 1.73 0 0 1-.36-.04l-.164.2c.17.048.347.072.524.072a2.027 2.027 0 0 0 2.09-2.052h.002Z" fill="#75BE1E"/><path d="M3.114 14.27c0 .026 0 .048.012.074l-.062-.048.05-.025Zm2.58 1.4h.02v-.014l-.02.015Zm-.748-.438a1.423 1.423 0 0 0 1.48-1.462 1.633 1.633 0 0 0-1.678-1.621h-.103a3.069 3.069 0 0 1-.06.241h.161a1.402 1.402 0 0 1 1.439 1.382 1.201 1.201 0 0 1-1.24 1.222.979.979 0 0 1-.99-.92.826.826 0 0 1 .8-.87.6.6 0 0 1 .628.57.413.413 0 0 1-.439.426.248.248 0 0 1-.224-.148.186.186 0 0 1 0-.2l-.184-.154a.42.42 0 0 0-.041.452.48.48 0 0 0 .441.286.65.65 0 0 0 .67-.688.843.843 0 0 0-.867-.8.996.996 0 0 0-.428.1 3.04 3.04 0 0 1-.57.752 1.272 1.272 0 0 0-.027.254 1.231 1.231 0 0 0 1.23 1.169l.002.01Zm2.079-1.476c-.002.26-.054.517-.152.756a1.65 1.65 0 0 1 .308-.184c.053-.19.08-.386.082-.584a2.459 2.459 0 0 0-1.56-2.277 2.453 2.453 0 0 0-.955-.168h-.047v.24h.041a2.216 2.216 0 0 1 2.28 2.205l.003.012Zm.86.016c0 .105-.007.21-.02.314a4 4 0 0 1 .246-.058c0-.084.014-.17.014-.256a3.4 3.4 0 0 0-3.377-3.328c-.073 0-.142 0-.214.01.026.078.05.156.07.237h.144a3.147 3.147 0 0 1 3.135 3.07l.002.011Z" fill="#CBE30F"/><path d="M8.831 15.622a1.71 1.71 0 0 1 .828.2 6.61 6.61 0 0 1-.45.082 1.55 1.55 0 0 0-.378-.048 1.596 1.596 0 0 0-.63.144h-.47a1.9 1.9 0 0 1 1.1-.378Zm0-.864a2.75 2.75 0 0 0-2.258 1.112l.268.044a2.528 2.528 0 0 1 2-.918 2.235 2.235 0 0 1 1.56.64c.084-.026.168-.056.25-.084a2.48 2.48 0 0 0-1.82-.794Zm0-.8a3.614 3.614 0 0 0-3.118 1.718l.24.068a3.39 3.39 0 0 1 2.878-1.546 3.096 3.096 0 0 1 2.445 1.11c.075-.034.152-.068.225-.104a3.332 3.332 0 0 0-2.67-1.256v.01Z" fill="#199DBF"/><path d="M1.278 3.846H1.16c.04-.078.102-.158.156-.246a3.492 3.492 0 0 1 3.532 3.492 3.218 3.218 0 0 1-.923 2.27 3.257 3.257 0 0 0-.16-.182c.54-.56.84-1.31.835-2.088a3.26 3.26 0 0 0-2.058-3.019 3.257 3.257 0 0 0-1.264-.227ZM.43 7.316a.886.886 0 0 1 .847-.916.695.695 0 0 1 .723.692.475.475 0 0 1-.462.482.293.293 0 0 1-.302-.2.234.234 0 0 1 .088-.266l-.14-.2A.47.47 0 0 0 1 7.456a.528.528 0 0 0 .532.358.712.712 0 0 0 .702-.722.935.935 0 0 0-.962-.926A1.121 1.121 0 0 0 .19 7.316c-.002.335.121.658.346.906.098-.02.2-.034.298-.046a1.12 1.12 0 0 1-.404-.86Zm3.282-.226a2.14 2.14 0 0 1-.636 1.534c.07.042.138.085.2.134a2.378 2.378 0 0 0 .67-1.668 2.626 2.626 0 0 0-2.668-2.628c-.16 0-.32.013-.478.038a6.547 6.547 0 0 0-.12.262c.197-.041.398-.061.6-.06a2.358 2.358 0 0 1 2.432 2.39V7.09Zm-.856 0a1.264 1.264 0 0 1-.67 1.165c.102.025.2.055.3.09a1.517 1.517 0 0 0 .6-1.255 1.783 1.783 0 0 0-1.818-1.777 1.92 1.92 0 0 0-.868.216 5.496 5.496 0 0 0-.102.345c.287-.21.634-.321.99-.32a1.541 1.541 0 0 1 1.568 1.538V7.09Z" fill="#930F4B"/><path d="M3.069 14.296c-.07-.055-.14-.11-.201-.168a2.879 2.879 0 0 0 1.61-2.652 3.129 3.129 0 0 0-3.164-3.09 3.52 3.52 0 0 0-1.288.238A2.76 2.76 0 0 0 0 8.372c.418-.152.86-.228 1.304-.226a3.37 3.37 0 0 1 3.4 3.33 3.13 3.13 0 0 1-1.635 2.82Zm.78-2.8a2.534 2.534 0 0 0-.755-1.781 2.522 2.522 0 0 0-1.788-.727 2.766 2.766 0 0 0-1.2.268c.014.084.028.166.044.248.36-.185.76-.28 1.164-.276a2.292 2.292 0 0 1 2.287 2.268 2.026 2.026 0 0 1-1.433 1.984c.06.064.12.128.182.2a2.252 2.252 0 0 0 1.498-2.184Zm-2.117 1.47a6.228 6.228 0 0 1-.175-.228 1.2 1.2 0 0 0 1.178-1.244A1.416 1.416 0 0 0 1.3 10.112a1.567 1.567 0 0 0-.93.302c-.026-.08-.048-.162-.07-.242a1.8 1.8 0 0 1 1-.3 1.648 1.648 0 0 1 1.674 1.624 1.433 1.433 0 0 1-1.242 1.47ZM.708 11.292C.672 11.2.634 11.126.6 11.04c.18-.192.433-.3.696-.298a.8.8 0 0 1 .844.754.658.658 0 0 1-.6.7.45.45 0 0 1-.414-.236.44.44 0 0 1 .046-.46l.2.142a.2.2 0 0 0-.026.2.213.213 0 0 0 .2.106.417.417 0 0 0 .36-.46.568.568 0 0 0-.6-.514.71.71 0 0 0-.598.318Z" fill="#75BE1E"/></svg>