<svg width="159" height="42" fill="none" xmlns="http://www.w3.org/2000/svg"><path d="M19.218 9.23c0 .204-.032.408-.032.62a9.534 9.534 0 0 0 .457 2.93 4.046 4.046 0 0 1-.657 1.22 7.74 7.74 0 0 0-.771-.053 3.58 3.58 0 0 0 1.014-2.477 3.99 3.99 0 0 0-1.214-2.752 3.97 3.97 0 0 0-2.788-1.117 4.436 4.436 0 0 0-3.131 1.321 4.458 4.458 0 0 0-1.284 3.153c.002.413.06.823.172 1.222a9.134 9.134 0 0 0-.792-.972v-.25a5.095 5.095 0 0 1 1.466-3.594 5.07 5.07 0 0 1 3.569-1.51 4.677 4.677 0 0 1 3.992 2.257h-.001Zm-5.933-6.572v.644a9.239 9.239 0 0 1 1.942-.21 8.36 8.36 0 0 1 5.34 1.88c.11-.18.22-.357.343-.525a8.963 8.963 0 0 0-5.683-1.985 9.89 9.89 0 0 0-1.942.196Zm5.617-1.22c-.123-.246-.23-.5-.32-.761a11.698 11.698 0 0 0-1.416-.32c-.68.126-1.343.283-1.996.473h.058a10.94 10.94 0 0 1 3.674.608Zm-5.89 3.675a7.409 7.409 0 0 1-.252.74 7.215 7.215 0 0 1 2.467-.424 6.25 6.25 0 0 1 4.358 1.659c.069-.22.148-.436.23-.652a6.9 6.9 0 0 0-4.588-1.637c-.747 0-1.49.107-2.205.32l-.01-.006Zm-.683 10.883c.08-.068.158-.14.241-.21a5.016 5.016 0 0 1-.472-.472c.084.226.163.436.231.682Zm.72-3.97a2.27 2.27 0 0 1 1.317-2.152c.27-.124.563-.193.86-.204a1.831 1.831 0 0 1 1.735 1.096c.098.223.151.462.156.705a1.258 1.258 0 0 1-1.191 1.307.717.717 0 0 1-.747-.524.625.625 0 0 1 .269-.705l-.33-.524a1.249 1.249 0 0 0-.527 1.423c.178.594.737.991 1.356.966a1.88 1.88 0 0 0 1.31-.592 1.89 1.89 0 0 0 .512-1.345 2.469 2.469 0 0 0-.759-1.756 2.454 2.454 0 0 0-1.783-.68 2.88 2.88 0 0 0-2.646 1.863c-.136.358-.198.74-.184 1.123a3.364 3.364 0 0 0 1.533 2.877c.237-.119.483-.23.73-.33a2.724 2.724 0 0 1-1.612-2.547Zm-4.952-1.804a7.956 7.956 0 0 0-.09.398c.194.111.384.226.567.347.054-.345.135-.686.242-1.018a7.593 7.593 0 0 1-.719.273Z" fill="#DF143F"/><path d="M38.361 24.623a5.975 5.975 0 0 1-1.193 3.758c-.404.08-.802.187-1.19.32a5.113 5.113 0 0 0 1.752-4.078 5.884 5.884 0 0 0-1.6-3.983 5.856 5.856 0 0 0-3.876-1.829c.395-.133.784-.29 1.16-.468a6.523 6.523 0 0 1 3.544 2.293 6.55 6.55 0 0 1 1.403 3.987Zm.671-3.818c-.04-.33-.061-.66-.063-.992v-.325a7.976 7.976 0 0 0-3.15-2.688 7.53 7.53 0 0 1-.562.446 7.461 7.461 0 0 1 3.775 3.564v-.005Zm-7.182 2.441a1.434 1.434 0 0 1 1.486 1.377 1.048 1.048 0 0 1-1.003 1.102.662.662 0 0 1-.567-.326.383.383 0 0 1 0-.378l-.525-.32a.997.997 0 0 0 0 1.013c.23.396.654.641 1.113.64a1.645 1.645 0 0 0 1.183-.518 1.656 1.656 0 0 0 .45-1.213 2.069 2.069 0 0 0-.639-1.436 2.059 2.059 0 0 0-1.46-.57 2.657 2.657 0 0 0-2.684 2.683c0 .335.054.669.162.987.268.053.526.12.787.194a2.389 2.389 0 0 1-.32-1.181 2.032 2.032 0 0 1 1.24-1.895 2.02 2.02 0 0 1 .777-.159Zm3.953-8.158-.246-.283.246.277v.006Zm4.064 8.537c.043.338.066.677.068 1.019a7.917 7.917 0 0 1-.84 3.596c.232 0 .457.01.678.032a8.587 8.587 0 0 0 .788-3.482 8.692 8.692 0 0 1-.694-1.165Zm-3.712.998a4.274 4.274 0 0 0-1.288-2.99 4.253 4.253 0 0 0-3.017-1.21 4.778 4.778 0 0 0-4.543 3.004 4.79 4.79 0 0 0-.34 1.889c0 .277.026.554.073.828h.636a4.241 4.241 0 0 1-.084-.818 4.167 4.167 0 0 1 2.61-3.964 4.16 4.16 0 0 1 1.643-.3 3.629 3.629 0 0 1 2.576 1.032 3.647 3.647 0 0 1 1.1 2.554 2.966 2.966 0 0 1-.755 2.134 2.95 2.95 0 0 1-2.04.975c.231.162.458.335.672.525a3.56 3.56 0 0 0 2.042-1.327 3.58 3.58 0 0 0 .715-2.332Zm-6.968-5.283h-.23c-.346 0-.694 0-1.05-.052a6.751 6.751 0 0 0-1.575 1.438c.058.296.1.594.125.893a6.174 6.174 0 0 1 2.73-2.279Z" fill="#199DBF"/><path d="M22.698.074c.35.026.687.062 1.008.105.374.256.816.394 1.27.394.211.004.423-.012.632-.048.374.083.743.177 1.106.277a3.676 3.676 0 0 1-1.737.41 2.822 2.822 0 0 1-2.28-1.138Zm2.279 3.076a5.378 5.378 0 0 0 3.901-1.617 14.844 14.844 0 0 0-.645-.252 4.773 4.773 0 0 1-3.251 1.24 4.084 4.084 0 0 1-2.324-.661A4.098 4.098 0 0 1 21.112 0h-.672a4.737 4.737 0 0 0 1.762 2.308c.814.565 1.785.86 2.774.842Zm0 1.921a7.443 7.443 0 0 0 5.75-2.677l-.573-.294a6.834 6.834 0 0 1-5.177 2.342 5.98 5.98 0 0 1-3.692-1.166A6.004 6.004 0 0 1 19.075.09l-.636.067a6.625 6.625 0 0 0 2.422 3.588 6.597 6.597 0 0 0 4.116 1.321v.005Z" fill="#EE723D"/><path d="M34.818 13.813c.12.188.246.373.377.525a7.945 7.945 0 0 1-6.243 2.83c-4.243 0-7.567-3.213-7.567-7.32a7.35 7.35 0 0 1 2.033-4.955c.26.058.526.103.792.132a6.77 6.77 0 0 0-2.194 4.824c0 3.749 3.045 6.689 6.936 6.689a7.28 7.28 0 0 0 5.864-2.725h.002Zm-5.866 4.909a9.532 9.532 0 0 1-3.707-.74c.178.271.338.554.483.844a10.416 10.416 0 0 0 10.973-2.893c-.162-.136-.33-.271-.483-.42a9.794 9.794 0 0 1-7.266 3.209ZM21.805 4.326a3.739 3.739 0 0 1-.557-.316 9.16 9.16 0 0 0-2.062 5.839 9.411 9.411 0 0 0 1.087 4.41c.31.085.615.19.913.31a8.74 8.74 0 0 1-1.37-4.724 8.558 8.558 0 0 1 1.99-5.52Zm8.343-1.312c-.185.185-.381.36-.587.524a5.73 5.73 0 0 1 4.09 3.194c.074-.296.158-.582.257-.862a6.364 6.364 0 0 0-3.765-2.856h.005Zm-1.197 11.297a4.538 4.538 0 0 1-4.34-2.705 4.546 4.546 0 0 1-.385-1.757 4.094 4.094 0 0 1 2.517-3.918 4.086 4.086 0 0 1 1.61-.313 3.494 3.494 0 0 1 2.527.979 3.492 3.492 0 0 1 1.07 2.491 2.971 2.971 0 0 1-1.85 2.827 2.966 2.966 0 0 1-1.17.218 2.386 2.386 0 0 1-1.71-.629 2.4 2.4 0 0 1-.773-1.654 1.913 1.913 0 0 1 1.14-1.901 1.9 1.9 0 0 1 .766-.158 1.372 1.372 0 0 1 1.439 1.303.876.876 0 0 1-.861.934.56.56 0 0 1-.448-.205.378.378 0 0 1-.083-.32l-.614-.143a1.002 1.002 0 0 0 .21.851 1.189 1.189 0 0 0 .94.441 1.504 1.504 0 0 0 1.414-.975c.072-.19.105-.394.097-.598a2.007 2.007 0 0 0-1.32-1.8 1.994 1.994 0 0 0-.775-.116 2.529 2.529 0 0 0-2.385 1.67 2.532 2.532 0 0 0-.147 1.017c.03.8.374 1.555.958 2.1a3.017 3.017 0 0 0 2.157.814 3.579 3.579 0 0 0 3.643-3.674 4.127 4.127 0 0 0-1.25-2.94 4.127 4.127 0 0 0-2.975-1.16A4.73 4.73 0 0 0 23.945 8a4.742 4.742 0 0 0-.32 1.851 5.17 5.17 0 0 0 5.34 5.093 5.768 5.768 0 0 0 5.01-2.805 8.773 8.773 0 0 1-.272-.835 5.146 5.146 0 0 1-4.752 3.007Z" fill="#169477"/><path d="M33.367 8.951c0-1.446.337-2.874.982-4.169.174.143.343.29.527.436a8.808 8.808 0 0 0-.862 3.728 8.683 8.683 0 0 0 1.52 4.804 8.651 8.651 0 0 0 3.93 3.144c-.068.2-.132.4-.189.61a9.284 9.284 0 0 1-4.257-3.371 9.323 9.323 0 0 1-1.65-5.182Zm6.7 6.6a7.05 7.05 0 0 1 .343-.557c-2.432-1.05-4.202-3.418-4.202-6.038 0-.712.112-1.421.332-2.1-.158-.173-.327-.346-.489-.525a7.447 7.447 0 0 0-.474 2.627 7.363 7.363 0 0 0 1.275 3.96 7.336 7.336 0 0 0 3.216 2.632Zm.526-2.1c-.127-.33-.26-.655-.404-.977a4.353 4.353 0 0 1-1.838-3.297 17.85 17.85 0 0 0-.599-.83 5.28 5.28 0 0 0-.042.615 5.06 5.06 0 0 0 .806 2.66 5.042 5.042 0 0 0 2.087 1.829h-.01Z" fill="#930F4B"/><path d="M38.97 19.818a8.437 8.437 0 0 1 1.942-5.49c.08.23.153.456.221.692a8.072 8.072 0 0 0 .473 10.06c-.046.25-.1.498-.163.745a8.572 8.572 0 0 1-2.474-6.007Zm2.956 2.946c.042-.526.068-1.05.074-1.575a5.633 5.633 0 0 1-.185-1.397 6.07 6.07 0 0 1 .08-.95 24.085 24.085 0 0 0-.22-1.575 6.525 6.525 0 0 0-.489 2.505 6.305 6.305 0 0 0 .74 2.992Z" fill="#DF143F"/><path d="M38.892 28.209c.596 0 1.191.052 1.78.158-.074.198-.158.404-.237.598a9.644 9.644 0 0 0-1.543-.132 8.497 8.497 0 0 0-4.012 1.019 20.57 20.57 0 0 0-.394-.526 9.123 9.123 0 0 1 4.406-1.117Zm-3.151 3.065c.095.194.179.39.258.583a6.127 6.127 0 0 1 2.914-.791h.524c.11-.201.21-.4.316-.605a7.602 7.602 0 0 0-.845-.053 6.638 6.638 0 0 0-3.204.871l.037-.005ZM36.535 34a4.2 4.2 0 0 1 1.417-.583c.173-.236.341-.473.524-.713a4.931 4.931 0 0 0-2.03.62c.01.224.047.45.073.676h.016Z" fill="#169477"/><path d="M20.636 29.837c-.35.425-.657.886-.914 1.373a4.286 4.286 0 0 0-.421-.523c.126-.22.258-.432.4-.636.316-.052.628-.124.935-.215Zm11.55 4.955a4.513 4.513 0 0 0-4.647-4.468 5.17 5.17 0 0 0-3.52 1.544 5.196 5.196 0 0 0-1.488 3.55c.003.413.053.825.152 1.227h.662a4.78 4.78 0 0 1-.164-1.208 4.548 4.548 0 0 1 1.293-3.1 4.526 4.526 0 0 1 3.065-1.363 3.887 3.887 0 0 1 4.017 3.84 3.357 3.357 0 0 1-.857 2.343 3.34 3.34 0 0 1-2.235 1.1c.233.163.457.338.671.524a3.955 3.955 0 0 0 2.239-1.45 3.972 3.972 0 0 0 .813-2.544v.005Zm-4.646-6.573a7.117 7.117 0 0 0-4.188 1.3 7.145 7.145 0 0 0-2.637 3.509c.14.356.259.724.351 1.096a6.52 6.52 0 0 1 2.289-3.8 6.491 6.491 0 0 1 4.185-1.45 6.07 6.07 0 0 1 4.32 1.674 6.101 6.101 0 0 1 1.892 4.239 5.627 5.627 0 0 1-1.435 3.9c.484-.31.952-.636 1.408-.981.44-.91.665-1.91.656-2.92a6.733 6.733 0 0 0-2.067-4.7 6.7 6.7 0 0 0-4.774-1.867Zm0 4.872a1.754 1.754 0 0 1 1.832 1.701 1.322 1.322 0 0 1-1.265 1.433.73.73 0 0 1-.803-.73.494.494 0 0 1 .382-.488l-.132-.62a1.116 1.116 0 0 0-.896 1.108 1.338 1.338 0 0 0 1.444 1.354 1.96 1.96 0 0 0 1.376-.632 1.971 1.971 0 0 0 .52-1.426 2.374 2.374 0 0 0-2.463-2.33 2.875 2.875 0 0 0-2.857 2.95c0 .47.096.934.283 1.366.274.053.527.115.803.188a2.852 2.852 0 0 1-.455-1.575 2.257 2.257 0 0 1 1.361-2.133c.275-.118.57-.18.87-.182v.016Zm0-6.978c-.721 0-1.441.071-2.147.216a7.496 7.496 0 0 1-.573.792c.885-.253 1.8-.38 2.72-.377a8.332 8.332 0 0 1 8.401 8.048c0 .351-.022.7-.063 1.05.234-.234.462-.473.683-.713v-.332a8.974 8.974 0 0 0-9.021-8.684Z" fill="#DF143F"/><path d="M12.077 22.827a6.632 6.632 0 0 0 1.943 4.724 8.702 8.702 0 0 0-.945-.115 7.272 7.272 0 0 1-1.618-4.336c.292-.473.537-.971.73-1.491-.073.401-.11.81-.11 1.218Zm5.95-8.888a8.712 8.712 0 0 0-5.703 2.041c.062.212.115.425.168.642a7.903 7.903 0 0 1 5.539-2.053 7.874 7.874 0 0 1 7.876 7.727c0 4.689-4.153 7.188-7.15 7.188-.222 0-.442 0-.658-.031.25.206.488.425.715.655 3.238-.031 7.702-2.744 7.702-7.812a8.535 8.535 0 0 0-8.49-8.357h.001Zm6.3 8.357a6.315 6.315 0 0 0-1.891-4.38 6.284 6.284 0 0 0-4.41-1.798 6.433 6.433 0 0 0-5.308 2.656 8.791 8.791 0 0 1-.168 1.575 5.814 5.814 0 0 1 2.182-2.65 5.793 5.793 0 0 1 3.294-.952 5.672 5.672 0 0 1 3.96 1.62 5.7 5.7 0 0 1 1.71 3.93c0 3.444-2.572 5.009-4.962 5.009a4.488 4.488 0 0 1-3.169-1.31 4.51 4.51 0 0 1-1.325-3.17 3.81 3.81 0 0 1 2.316-3.59 3.803 3.803 0 0 1 1.47-.305 3.365 3.365 0 0 1 3.196 2.054c.176.415.268.86.27 1.311a2.801 2.801 0 0 1-.801 1.98 2.788 2.788 0 0 1-1.961.835 2.24 2.24 0 0 1-2.342-2.284 1.676 1.676 0 0 1 .989-1.598c.203-.09.421-.14.643-.144a1.185 1.185 0 0 1 1.205.722c.065.155.097.322.093.49a.768.768 0 0 1-.579.803.526.526 0 0 1-.403-.143.319.319 0 0 1-.052-.271l-.619-.111a.94.94 0 0 0 .188.788c.225.249.552.382.887.366a1.381 1.381 0 0 0 1.213-1.433 1.824 1.824 0 0 0-1.198-1.716 1.81 1.81 0 0 0-.73-.105 2.314 2.314 0 0 0-1.62.706 2.326 2.326 0 0 0-.653 1.646 2.896 2.896 0 0 0 .876 2.085 2.882 2.882 0 0 0 2.107.813 3.415 3.415 0 0 0 2.407-1.02 3.43 3.43 0 0 0 .986-2.424 4.01 4.01 0 0 0-4.097-3.995 4.423 4.423 0 0 0-4.415 4.525 5.137 5.137 0 0 0 1.51 3.616 5.112 5.112 0 0 0 3.615 1.492 5.428 5.428 0 0 0 4.01-1.602 5.428 5.428 0 0 0 1.576-4.02Z" fill="#EE723D"/><path d="M12.676 3.114a7.977 7.977 0 0 0-.121-1.339l.598-.252a8.54 8.54 0 0 1 .152 1.574 7.518 7.518 0 0 1-1.632 4.636 7.486 7.486 0 0 1-4.143 2.63 9.049 9.049 0 0 0-1.119-.446 6.872 6.872 0 0 0 4.441-2.19 6.904 6.904 0 0 0 1.825-4.613h-.001ZM8.82 3.9c-.319.227-.633.461-.945.703-.273.449-.68.801-1.165 1.003-.291.27-.574.548-.852.834a3.143 3.143 0 0 0 1.917-.757A3.157 3.157 0 0 0 8.815 3.9h.005Zm2.284-.788c0-.207-.01-.413-.032-.62-.204.11-.408.232-.613.347v.273c0 3.15-2.437 4.777-4.847 4.777a4.543 4.543 0 0 1-.945-.106l-.43.527c.447.124.91.187 1.375.189a5.32 5.32 0 0 0 5.085-3.292c.274-.664.41-1.377.402-2.095h.005Z" fill="#75BE1E"/><path d="M8.175 37.46c0 .067 0 .125.032.193l-.162-.126.13-.068Zm6.774 3.674h.053v-.037l-.053.037Zm-1.964-1.15a3.735 3.735 0 0 0 2.777-1.076 3.738 3.738 0 0 0 1.11-2.762 4.288 4.288 0 0 0-2.737-3.969 4.281 4.281 0 0 0-1.67-.288h-.272a8.003 8.003 0 0 1-.158.635h.425a3.68 3.68 0 0 1 3.775 3.627 3.154 3.154 0 0 1-2.004 2.994 3.147 3.147 0 0 1-1.251.214 2.57 2.57 0 0 1-1.78-.688 2.583 2.583 0 0 1-.818-1.726 2.168 2.168 0 0 1 1.263-2.092c.263-.12.547-.185.836-.193a1.577 1.577 0 0 1 1.65 1.497 1.082 1.082 0 0 1-.707 1.055 1.075 1.075 0 0 1-.444.063.65.65 0 0 1-.588-.389.488.488 0 0 1 0-.525l-.483-.403a1.101 1.101 0 0 0-.11 1.186c.204.456.658.752 1.16.75a1.703 1.703 0 0 0 1.652-1.11 1.72 1.72 0 0 0 .107-.696 2.212 2.212 0 0 0-.71-1.518 2.2 2.2 0 0 0-1.568-.581c-.39.002-.774.092-1.124.262a7.995 7.995 0 0 1-1.497 1.974c-.045.22-.068.443-.068.667a3.221 3.221 0 0 0 3.229 3.067l.005.025Zm5.455-3.875a5.292 5.292 0 0 1-.399 1.985c.26-.195.53-.356.81-.483.14-.499.212-1.015.215-1.533a6.453 6.453 0 0 0-1.951-4.597 6.455 6.455 0 0 0-4.65-1.823h-.125v.63h.11a5.817 5.817 0 0 1 4.212 1.635 5.816 5.816 0 0 1 1.773 4.155l.005.031Zm2.26.042c-.002.276-.02.552-.053.825.213-.059.428-.11.645-.153 0-.22.036-.446.036-.672a8.926 8.926 0 0 0-8.863-8.736c-.193 0-.372 0-.562.027.069.204.132.409.184.62h.378a8.262 8.262 0 0 1 8.228 8.058l.006.032Z" fill="#CBE30F"/><path d="M23.181 41.007a4.49 4.49 0 0 1 2.175.526c-.39.084-.783.158-1.182.215a4.072 4.072 0 0 0-.993-.126 4.184 4.184 0 0 0-1.653.378h-1.235a5.005 5.005 0 0 1 2.888-.993Zm0-2.268a7.215 7.215 0 0 0-5.927 2.919l.703.116a6.641 6.641 0 0 1 5.252-2.41 5.866 5.866 0 0 1 4.094 1.68c.221-.068.44-.146.657-.22a6.509 6.509 0 0 0-4.779-2.085Zm0-2.098a9.485 9.485 0 0 0-4.683 1.177 9.514 9.514 0 0 0-3.502 3.332l.63.178a8.899 8.899 0 0 1 3.257-3.002 8.874 8.874 0 0 1 4.298-1.056 8.126 8.126 0 0 1 6.418 2.914c.198-.09.398-.18.592-.273a8.75 8.75 0 0 0-7.01-3.298v.028Z" fill="#199DBF"/><path d="M3.355 10.095h-.31c.105-.204.268-.414.41-.645a9.166 9.166 0 0 1 9.272 9.166 8.448 8.448 0 0 1-2.423 5.96 8.53 8.53 0 0 0-.418-.478 7.823 7.823 0 0 0 2.189-5.482 8.556 8.556 0 0 0-2.57-6.089 8.557 8.557 0 0 0-6.15-2.432Zm-2.226 9.11A2.324 2.324 0 0 1 3.354 16.8a1.825 1.825 0 0 1 1.745 1.104c.097.225.148.467.15.712a1.247 1.247 0 0 1-1.21 1.267.77.77 0 0 1-.794-.527.615.615 0 0 1 .231-.698l-.368-.525a1.232 1.232 0 0 0-.483 1.438c.2.594.772.978 1.396.941a1.87 1.87 0 0 0 1.312-.567c.346-.355.537-.833.531-1.329a2.455 2.455 0 0 0-1.569-2.27 2.437 2.437 0 0 0-.955-.16 2.943 2.943 0 0 0-2.04.924 2.958 2.958 0 0 0-.8 2.095 3.516 3.516 0 0 0 .908 2.378c.257-.053.525-.09.782-.12a2.942 2.942 0 0 1-1.06-2.259Zm8.616-.594a5.617 5.617 0 0 1-1.67 4.027c.185.11.363.225.526.351a6.242 6.242 0 0 0 1.759-4.378 6.893 6.893 0 0 0-4.332-6.407 6.883 6.883 0 0 0-2.673-.491c-.42 0-.84.034-1.255.099-.11.227-.215.457-.315.689a7.501 7.501 0 0 1 1.576-.159 6.191 6.191 0 0 1 5.918 3.834 6.2 6.2 0 0 1 .466 2.44v-.005Zm-2.247 0a3.319 3.319 0 0 1-1.759 3.057c.268.068.526.147.787.236a3.983 3.983 0 0 0 1.576-3.292 4.681 4.681 0 0 0-1.406-3.336 4.678 4.678 0 0 0-3.367-1.33 5.042 5.042 0 0 0-2.279.567c-.098.297-.188.6-.268.907a4.39 4.39 0 0 1 2.6-.84 4.048 4.048 0 0 1 4.116 4.037v-.006Z" fill="#930F4B"/><path d="M8.055 37.527c-.184-.145-.369-.288-.527-.441a7.556 7.556 0 0 0 3.129-2.861 7.582 7.582 0 0 0 1.1-4.1 8.213 8.213 0 0 0-8.307-8.112 9.243 9.243 0 0 0-3.383.625A7.244 7.244 0 0 0 0 21.977a9.929 9.929 0 0 1 3.423-.594c4.878-.045 8.872 3.867 8.927 8.743a8.218 8.218 0 0 1-1.107 4.308 8.187 8.187 0 0 1-3.188 3.094Zm2.047-7.35a6.652 6.652 0 0 0-1.98-4.675 6.62 6.62 0 0 0-4.694-1.908 7.262 7.262 0 0 0-3.15.703c.037.22.073.436.116.65a6.584 6.584 0 0 1 3.056-.724 5.99 5.99 0 0 1 4.223 1.74 6.02 6.02 0 0 1 1.779 4.215 5.318 5.318 0 0 1-1.005 3.238 5.296 5.296 0 0 1-2.755 1.969c.158.169.316.336.478.525a5.91 5.91 0 0 0 2.894-2.226 5.938 5.938 0 0 0 1.038-3.508Zm-5.555 3.86c-.158-.195-.31-.395-.461-.6a3.147 3.147 0 0 0 3.092-3.266 3.716 3.716 0 0 0-1.136-2.591 3.698 3.698 0 0 0-2.629-1.035 4.112 4.112 0 0 0-2.442.791c-.068-.21-.126-.424-.184-.634a4.726 4.726 0 0 1 2.626-.788 4.326 4.326 0 0 1 3.076 1.22 4.347 4.347 0 0 1 1.318 3.042 3.763 3.763 0 0 1-.885 2.563 3.745 3.745 0 0 1-2.375 1.297Zm-2.688-4.395c-.095-.242-.195-.436-.283-.661a2.48 2.48 0 0 1 1.827-.783 2.1 2.1 0 0 1 1.515.532c.415.37.667.891.7 1.448a1.726 1.726 0 0 1-1.575 1.836 1.18 1.18 0 0 1-1.086-.62 1.155 1.155 0 0 1 .12-1.206l.526.372a.524.524 0 0 0-.07.526.557.557 0 0 0 .527.277 1.095 1.095 0 0 0 .944-1.206 1.49 1.49 0 0 0-1.575-1.35 1.862 1.862 0 0 0-1.57.835Z" fill="#75BE1E"/><path d="M65.436 12.387v23.156h-5.484V12.388H54V7.882h17.353v4.504h-5.917Zm18.203 6.607a8.935 8.935 0 0 0-2.374-.301 7.66 7.66 0 0 0-2.643.42v16.43h-5.3V15.98a24.323 24.323 0 0 1 8.56-1.49 17.7 17.7 0 0 1 2.722.191l-.965 4.316v-.002ZM95.8 36c-6.307 0-9.46-2.445-9.46-6.648 0-5.62 5.948-6.726 12.294-7.069v-1.067c0-2.14-1.515-2.945-3.93-2.945a17.208 17.208 0 0 0-5.876 1.227l-1.322-3.518a21.854 21.854 0 0 1 7.782-1.49c5.364 0 8.364 2.06 8.364 7.34v12.688a19.526 19.526 0 0 1-7.837 1.48h-.018l.002.002Zm2.832-10.4c-3.89.193-7.293.533-7.293 3.63 0 1.953 1.555 3.059 4.317 3.059a9.942 9.942 0 0 0 3-.423V25.6h-.024Zm21.829 9.934v-13.53c0-2.06-1.282-3.328-3.699-3.328a9.648 9.648 0 0 0-3.152.493v16.39h-5.293V15.98a22.24 22.24 0 0 1 8.364-1.49c6.225 0 9.104 2.524 9.104 6.957v14.098h-5.335l.009-.008.002-.002Zm12.797-23.88a2.981 2.981 0 0 1-2.11-.795c-.568-.53-.9-1.26-.923-2.03a2.968 2.968 0 0 1 .944-2.011A3.063 3.063 0 0 1 133.262 6c1.616 0 2.951 1.243 3.035 2.83a2.887 2.887 0 0 1-.911 2.02 2.977 2.977 0 0 1-2.089.807h-.04l.002-.003Zm-2.643 23.88V14.943h5.291v20.594l-5.291-.002Zm18.89.462c-6.11 0-9.489-4.625-9.489-10.778 0-6.153 3.388-10.736 9.489-10.736 6.104 0 9.494 4.583 9.494 10.736 0 6.153-3.39 10.78-9.494 10.78v-.003Zm0-17.424c-2.804 0-4.198 2.484-4.198 6.616 0 4.13 1.403 6.574 4.198 6.574 2.798 0 4.199-2.445 4.199-6.574 0-4.132-1.401-6.616-4.199-6.616Z" fill="#000"/></svg>