<svg width="16" height="16" fill="none" xmlns="http://www.w3.org/2000/svg"><path d="M4 .224c.915.667 1.628 1.578 2.237 2.45l.354.516.334.493a1.205 1.205 0 0 1-.205 1.59L5.157 6.436a.385.385 0 0 0-.114.493c.354.644.984 1.602 1.705 2.323.722.721 1.725 1.392 2.413 1.787a.387.387 0 0 0 .516-.13l1.018-1.549a1.204 1.204 0 0 1 1.647-.266l.531.368c.993.689 2.06 1.472 2.875 2.516a1.177 1.177 0 0 1 .152 1.188c-.671 1.565-2.368 2.898-4.133 2.833l-.24-.014-.187-.016-.207-.024-.225-.03-.244-.04a9.324 9.324 0 0 1-.128-.024l-.27-.058a9.586 9.586 0 0 1-.14-.032l-.294-.075-.308-.089-.322-.104c-1.48-.501-3.357-1.487-5.283-3.413C1.994 10.154 1.01 8.277.507 6.798l-.104-.322-.088-.309-.076-.293-.062-.277a9.442 9.442 0 0 1-.05-.262l-.04-.244-.033-.225-.023-.207-.016-.186-.013-.24C-.063 2.472 1.284.762 2.842.095a1.178 1.178 0 0 1 1.157.128Zm6.517 2.88.093.01a2.804 2.804 0 0 1 2.29 2.372.8.8 0 0 1-1.569.315l-.018-.092a1.203 1.203 0 0 0-.858-.988l-.124-.028a.801.801 0 0 1 .186-1.589ZM10.524.67a4.807 4.807 0 0 1 4.807 4.807.801.801 0 0 1-1.597.093l-.006-.093a3.203 3.203 0 0 0-2.995-3.198l-.21-.007a.801.801 0 1 1 0-1.602Z" fill="#727B89"/></svg>