<svg width="13" height="20" fill="none" xmlns="http://www.w3.org/2000/svg"><path fill-rule="evenodd" clip-rule="evenodd" d="M1.3 5c0-.963.289-1.904.832-2.713A5.148 5.148 0 0 1 4.36.443 5.388 5.388 0 0 1 7.274.056c.99.143 1.915.558 2.666 1.194a4.978 4.978 0 0 1 1.565 2.394c.271.926.26 1.908-.035 2.828a4.991 4.991 0 0 1-1.625 2.357A5.304 5.304 0 0 1 7.15 9.96v6.914a.613.613 0 0 1-.19.442.663.663 0 0 1-.46.183.663.663 0 0 1-.46-.183.613.613 0 0 1-.19-.442V9.962a5.267 5.267 0 0 1-3.251-1.654A4.888 4.888 0 0 1 1.3 5Zm3.24 10.717a.606.606 0 0 1-.112.466.654.654 0 0 1-.421.253c-.926.148-1.664.369-2.152.616a1.689 1.689 0 0 0-.48.332.376.376 0 0 0-.075.112v.004l.003.01a.18.18 0 0 0 .02.041.787.787 0 0 0 .189.188c.214.162.565.337 1.057.494.976.312 2.366.517 3.931.517s2.955-.204 3.931-.517c.492-.158.843-.332 1.057-.494a.788.788 0 0 0 .19-.188.181.181 0 0 0 .02-.041l.002-.01v-.005a.374.374 0 0 0-.074-.113 1.715 1.715 0 0 0-.481-.33c-.489-.247-1.226-.468-2.152-.616a.668.668 0 0 1-.435-.248.615.615 0 0 1-.119-.474.61.61 0 0 1 .272-.411.665.665 0 0 1 .496-.1c1 .16 1.887.41 2.544.743C12.35 16.25 13 16.75 13 17.5c0 .532-.338.94-.707 1.221-.377.285-.884.517-1.451.698C9.701 19.785 8.165 20 6.5 20c-1.665 0-3.2-.215-4.342-.581-.567-.181-1.074-.413-1.45-.698C.337 18.44 0 18.032 0 17.5c0-.749.65-1.25 1.25-1.554.656-.332 1.542-.584 2.543-.742a.67.67 0 0 1 .485.108.62.62 0 0 1 .263.405Z" fill="#242629"/></svg>