<svg width="13" height="13" fill="none" xmlns="http://www.w3.org/2000/svg"><path fill-rule="evenodd" clip-rule="evenodd" d="M4.144.51A6.197 6.197 0 0 1 6.617 0a6.242 6.242 0 0 1 2.479.51 6.387 6.387 0 0 1 2.033 1.35 6.446 6.446 0 0 1 1.364 2.021 6.236 6.236 0 0 1 0 4.922 6.446 6.446 0 0 1-1.364 2.021 6.397 6.397 0 0 1-2.033 1.357 6.237 6.237 0 0 1-2.48.503 6.262 6.262 0 0 1-3.085-.791L0 13l1.153-3.405A6.2 6.2 0 0 1 .24 6.323a6.136 6.136 0 0 1 .506-2.464c.32-.755.783-1.44 1.365-2.02A6.386 6.386 0 0 1 4.144.508Zm4.194 6.66c-.072 0-.223.133-.44.404v.017c-.223.254-.373.393-.473.337a.397.397 0 0 1-.19-.06A5.282 5.282 0 0 1 5.96 7.02a3.745 3.745 0 0 1-.864-1.151.254.254 0 0 1-.044-.128c0-.055.1-.188.295-.393a.846.846 0 0 0 .29-.481 5.343 5.343 0 0 0-.212-.631c-.123-.337-.21-.566-.26-.695l-.019-.047a.608.608 0 0 0-.128-.227.352.352 0 0 0-.228-.056h-.31a.631.631 0 0 0-.44.189 1.856 1.856 0 0 0-.625 1.328v.067c.026.6.234 1.18.596 1.66.37.555.79 1.076 1.254 1.557.417.413.906.748 1.442.99.497.273 1.041.45 1.604.521.301-.008.596-.084.864-.221.264-.102.479-.3.601-.554a1.78 1.78 0 0 0 .145-.637.368.368 0 0 0 0-.127 3.715 3.715 0 0 0-.758-.443 3.832 3.832 0 0 0-.824-.371Z" fill="#fff"/></svg>