<svg width="15" height="15" fill="none" xmlns="http://www.w3.org/2000/svg"><path fill-rule="evenodd" clip-rule="evenodd" d="M4.782.589A7.15 7.15 0 0 1 7.635 0a7.203 7.203 0 0 1 2.86.588 7.368 7.368 0 0 1 2.346 1.559 7.438 7.438 0 0 1 1.574 2.331 7.194 7.194 0 0 1 0 5.68 7.438 7.438 0 0 1-1.574 2.331 7.381 7.381 0 0 1-2.346 1.566 7.198 7.198 0 0 1-2.86.58 7.224 7.224 0 0 1-3.56-.913L0 15.001l1.33-3.929A7.155 7.155 0 0 1 .276 7.297a7.08 7.08 0 0 1 .585-2.843 7.331 7.331 0 0 1 1.575-2.332A7.369 7.369 0 0 1 4.782.589ZM9.62 8.274c-.084 0-.257.153-.508.466v.02c-.257.293-.43.453-.546.39a.458.458 0 0 1-.219-.071 6.095 6.095 0 0 1-1.47-.979 4.32 4.32 0 0 1-.997-1.328.293.293 0 0 1-.05-.147c0-.064.115-.217.34-.454a.976.976 0 0 0 .334-.556 6.165 6.165 0 0 0-.244-.728c-.142-.388-.244-.653-.3-.802l-.022-.054a.701.701 0 0 0-.148-.262.407.407 0 0 0-.263-.064h-.36a.728.728 0 0 0-.508.217 2.141 2.141 0 0 0-.72 1.534v.076c.03.693.27 1.361.688 1.917.428.64.912 1.24 1.446 1.795a5.694 5.694 0 0 0 1.665 1.144 5.206 5.206 0 0 0 1.85.6c.348-.01.689-.096.997-.256a1.28 1.28 0 0 0 .694-.638c.1-.233.157-.482.167-.735a.426.426 0 0 0 0-.147 4.284 4.284 0 0 0-.874-.511 4.422 4.422 0 0 0-.951-.428Z" fill="#46AC54"/></svg>